<mxfile host="app.diagrams.net" agent="Mozilla/5.0 (Macintosh; Intel Mac OS X 10_15_7) AppleWebKit/537.36 (KHTML, like Gecko) Chrome/137.0.0.0 Safari/537.36" version="27.1.5">
  <diagram name="페이지-1" id="m_z33kPHvXKe1asl_TsZ">
    <mxGraphModel dx="1018" dy="570" grid="1" gridSize="10" guides="1" tooltips="1" connect="1" arrows="1" fold="1" page="1" pageScale="1" pageWidth="827" pageHeight="1169" math="0" shadow="0">
      <root>
        <mxCell id="0" />
        <mxCell id="1" parent="0" />
        <mxCell id="PKgN45BdB1gqDsvXwKFu-2" value="PetOwners" style="swimlane;whiteSpace=wrap;html=1;" vertex="1" parent="1">
          <mxGeometry x="70" y="30" width="200" height="200" as="geometry" />
        </mxCell>
        <mxCell id="PKgN45BdB1gqDsvXwKFu-3" value="owner id&lt;div&gt;name&lt;/div&gt;&lt;div&gt;contact&lt;/div&gt;" style="whiteSpace=wrap;html=1;align=left;" vertex="1" parent="PKgN45BdB1gqDsvXwKFu-2">
          <mxGeometry y="20" width="200" height="180" as="geometry" />
        </mxCell>
        <mxCell id="PKgN45BdB1gqDsvXwKFu-6" value="Rooms" style="swimlane;whiteSpace=wrap;html=1;" vertex="1" parent="1">
          <mxGeometry x="570" y="20" width="200" height="200" as="geometry" />
        </mxCell>
        <mxCell id="PKgN45BdB1gqDsvXwKFu-7" value="roomID&lt;div&gt;roomNumber&lt;/div&gt;&lt;div&gt;roomType&lt;/div&gt;&lt;div&gt;pricePerNight&lt;/div&gt;" style="rounded=0;whiteSpace=wrap;html=1;align=left;" vertex="1" parent="PKgN45BdB1gqDsvXwKFu-6">
          <mxGeometry y="20" width="200" height="180" as="geometry" />
        </mxCell>
        <mxCell id="PKgN45BdB1gqDsvXwKFu-10" value="Reservations" style="swimlane;whiteSpace=wrap;html=1;" vertex="1" parent="1">
          <mxGeometry x="320" y="220" width="210" height="200" as="geometry" />
        </mxCell>
        <mxCell id="PKgN45BdB1gqDsvXwKFu-11" value="reservationID (FK)&lt;div&gt;petID&lt;/div&gt;&lt;div&gt;roomID&lt;/div&gt;&lt;div&gt;startDate&lt;/div&gt;&lt;div&gt;endDate&lt;/div&gt;" style="rounded=0;whiteSpace=wrap;html=1;align=left;" vertex="1" parent="PKgN45BdB1gqDsvXwKFu-10">
          <mxGeometry y="20" width="210" height="180" as="geometry" />
        </mxCell>
        <mxCell id="PKgN45BdB1gqDsvXwKFu-12" value="Pets" style="swimlane;whiteSpace=wrap;html=1;" vertex="1" parent="1">
          <mxGeometry x="70" y="420" width="200" height="180" as="geometry" />
        </mxCell>
        <mxCell id="PKgN45BdB1gqDsvXwKFu-13" value="PetID (FK)&lt;div&gt;ownerID (FK)&lt;/div&gt;&lt;div&gt;name&lt;/div&gt;&lt;div&gt;species&lt;/div&gt;&lt;div&gt;breed&lt;/div&gt;" style="rounded=0;whiteSpace=wrap;html=1;align=left;" vertex="1" parent="PKgN45BdB1gqDsvXwKFu-12">
          <mxGeometry y="20" width="200" height="160" as="geometry" />
        </mxCell>
        <mxCell id="PKgN45BdB1gqDsvXwKFu-14" value="Services" style="swimlane;whiteSpace=wrap;html=1;" vertex="1" parent="1">
          <mxGeometry x="570" y="410" width="190" height="190" as="geometry" />
        </mxCell>
        <mxCell id="PKgN45BdB1gqDsvXwKFu-15" value="servicesID (FK)&lt;div&gt;reservationID (FK)&lt;/div&gt;&lt;div&gt;serviceName&lt;/div&gt;&lt;div&gt;servicePrice&lt;/div&gt;" style="rounded=0;whiteSpace=wrap;html=1;align=left;" vertex="1" parent="PKgN45BdB1gqDsvXwKFu-14">
          <mxGeometry y="20" width="190" height="170" as="geometry" />
        </mxCell>
        <mxCell id="PKgN45BdB1gqDsvXwKFu-22" value="" style="endArrow=classic;html=1;rounded=0;exitX=0.445;exitY=-0.022;exitDx=0;exitDy=0;exitPerimeter=0;" edge="1" parent="1" source="PKgN45BdB1gqDsvXwKFu-12">
          <mxGeometry width="50" height="50" relative="1" as="geometry">
            <mxPoint x="389" y="145" as="sourcePoint" />
            <mxPoint x="160" y="230" as="targetPoint" />
          </mxGeometry>
        </mxCell>
        <mxCell id="PKgN45BdB1gqDsvXwKFu-23" value="" style="endArrow=classic;html=1;rounded=0;entryX=-0.005;entryY=0.439;entryDx=0;entryDy=0;entryPerimeter=0;" edge="1" parent="1" target="PKgN45BdB1gqDsvXwKFu-7">
          <mxGeometry width="50" height="50" relative="1" as="geometry">
            <mxPoint x="414" y="220" as="sourcePoint" />
            <mxPoint x="464" y="170" as="targetPoint" />
          </mxGeometry>
        </mxCell>
        <mxCell id="PKgN45BdB1gqDsvXwKFu-24" value="" style="endArrow=classic;html=1;rounded=0;exitX=0.5;exitY=0;exitDx=0;exitDy=0;entryX=1;entryY=0.5;entryDx=0;entryDy=0;" edge="1" parent="1" source="PKgN45BdB1gqDsvXwKFu-14" target="PKgN45BdB1gqDsvXwKFu-10">
          <mxGeometry width="50" height="50" relative="1" as="geometry">
            <mxPoint x="660" y="340" as="sourcePoint" />
            <mxPoint x="710" y="290" as="targetPoint" />
          </mxGeometry>
        </mxCell>
      </root>
    </mxGraphModel>
  </diagram>
</mxfile>
